<svg width="787" height="807" viewBox="0 0 787 807" fill="none" xmlns="http://www.w3.org/2000/svg">
<circle cx="300" cy="300" r="277" stroke="black" stroke-width="46"/>
<path d="M514.914 613.02C506.532 603.824 506.567 589.749 514.994 580.595L565.985 525.214C574.94 515.488 590.233 515.296 599.429 524.794L758.879 689.477C774.036 705.131 773.426 730.168 757.525 745.066L720.442 779.809C704.571 794.678 679.605 793.694 664.955 777.621L514.914 613.02Z" fill="black"/>
<path d="M512.567 527.378C512.596 526.902 512.959 526.512 513.432 526.449L578.92 517.655C589.154 516.281 595.471 528.493 588.436 536.052L529.425 599.457C521.751 607.703 507.969 601.785 508.664 590.541L512.567 527.378Z" fill="black"/>
<rect x="474.712" y="513.258" width="48.1498" height="72" transform="rotate(-44.2753 474.712 513.258)" fill="black"/>
<rect x="160" y="239.692" width="91" height="300.014" rx="32" transform="rotate(-45.3083 160 239.692)" fill="black"/>
<path d="M354.344 200.036C367.16 187.866 387.414 188.389 399.584 201.204L418.177 220.782C430.347 233.598 429.824 253.852 417.008 266.022L245.868 428.545C233.053 440.715 212.798 440.192 200.628 427.377L182.036 407.799C169.866 394.983 170.389 374.729 183.204 362.559L354.344 200.036Z" fill="black"/>
</svg>
